<?xml version="1.0" encoding="UTF-8" standalone="no"?>
<!DOCTYPE svg PUBLIC "-//W3C//DTD SVG 1.1//EN"
 "http://www.w3.org/Graphics/SVG/1.1/DTD/svg11.dtd">
<!-- Generated by graphviz version 7.1.0 (20230121.1956)
 -->
<!-- Pages: 1 -->
<svg width="1082pt" height="332pt"
 viewBox="0.00 0.00 1082.49 332.00" xmlns="http://www.w3.org/2000/svg" xmlns:xlink="http://www.w3.org/1999/xlink">
<g id="graph0" class="graph" transform="scale(1 1) rotate(0) translate(4 328)">
<polygon fill="white" stroke="none" points="-4,4 -4,-328 1078.49,-328 1078.49,4 -4,4"/>
<!-- [root] local_file.pet (expand) -->
<g id="node1" class="node">
<title>[root] local_file.pet (expand)</title>
<polygon fill="none" stroke="black" points="574.36,-180 486.36,-180 486.36,-144 574.36,-144 574.36,-180"/>
<text text-anchor="middle" x="530.36" y="-158.3" font-family="Times,serif" font-size="14.00">local_file.pet</text>
</g>
<!-- [root] provider[&quot;registry.terraform.io/hashicorp/local&quot;] -->
<g id="node2" class="node">
<title>[root] provider[&quot;registry.terraform.io/hashicorp/local&quot;]</title>
<polygon fill="none" stroke="black" points="257.36,-108 0.14,-90 257.36,-72 514.59,-90 257.36,-108"/>
<text text-anchor="middle" x="257.36" y="-86.3" font-family="Times,serif" font-size="14.00">provider[&quot;registry.terraform.io/hashicorp/local&quot;]</text>
</g>
<!-- [root] local_file.pet (expand)&#45;&gt;[root] provider[&quot;registry.terraform.io/hashicorp/local&quot;] -->
<g id="edge1" class="edge">
<title>[root] local_file.pet (expand)&#45;&gt;[root] provider[&quot;registry.terraform.io/hashicorp/local&quot;]</title>
<path fill="none" stroke="black" d="M485.89,-149.6C441.37,-138.18 372.38,-120.49 321.85,-107.53"/>
<polygon fill="black" stroke="black" points="322.74,-104.15 312.19,-105.06 321,-110.93 322.74,-104.15"/>
</g>
<!-- [root] random_pet.my_pet (expand) -->
<g id="node4" class="node">
<title>[root] random_pet.my_pet (expand)</title>
<polygon fill="none" stroke="black" points="851.86,-108 724.86,-108 724.86,-72 851.86,-72 851.86,-108"/>
<text text-anchor="middle" x="788.36" y="-86.3" font-family="Times,serif" font-size="14.00">random_pet.my_pet</text>
</g>
<!-- [root] local_file.pet (expand)&#45;&gt;[root] random_pet.my_pet (expand) -->
<g id="edge2" class="edge">
<title>[root] local_file.pet (expand)&#45;&gt;[root] random_pet.my_pet (expand)</title>
<path fill="none" stroke="black" d="M574.84,-146.53C577.72,-145.66 580.58,-144.81 583.36,-144 626.2,-131.6 674.47,-119.05 713.41,-109.28"/>
<polygon fill="black" stroke="black" points="714.07,-112.72 722.92,-106.9 712.37,-105.93 714.07,-112.72"/>
</g>
<!-- [root] var.filename -->
<g id="node6" class="node">
<title>[root] var.filename</title>
<polygon fill="none" stroke="black" points="611.86,-108 532.86,-108 532.86,-72 617.86,-72 617.86,-102 611.86,-108"/>
<polyline fill="none" stroke="black" points="611.86,-108 611.86,-102"/>
<polyline fill="none" stroke="black" points="617.86,-102 611.86,-102"/>
<text text-anchor="middle" x="575.36" y="-86.3" font-family="Times,serif" font-size="14.00">var.filename</text>
</g>
<!-- [root] local_file.pet (expand)&#45;&gt;[root] var.filename -->
<g id="edge3" class="edge">
<title>[root] local_file.pet (expand)&#45;&gt;[root] var.filename</title>
<path fill="none" stroke="black" d="M541.49,-143.7C546.56,-135.81 552.67,-126.3 558.3,-117.55"/>
<polygon fill="black" stroke="black" points="561.09,-119.68 563.55,-109.38 555.2,-115.9 561.09,-119.68"/>
</g>
<!-- [root] provider[&quot;registry.terraform.io/hashicorp/random&quot;] -->
<g id="node3" class="node">
<title>[root] provider[&quot;registry.terraform.io/hashicorp/random&quot;]</title>
<polygon fill="none" stroke="black" points="418.36,-36 146.22,-18 418.36,0 690.51,-18 418.36,-36"/>
<text text-anchor="middle" x="418.36" y="-14.3" font-family="Times,serif" font-size="14.00">provider[&quot;registry.terraform.io/hashicorp/random&quot;]</text>
</g>
<!-- [root] random_pet.my_pet (expand)&#45;&gt;[root] provider[&quot;registry.terraform.io/hashicorp/random&quot;] -->
<g id="edge6" class="edge">
<title>[root] random_pet.my_pet (expand)&#45;&gt;[root] provider[&quot;registry.terraform.io/hashicorp/random&quot;]</title>
<path fill="none" stroke="black" d="M724.76,-76.97C661.93,-65.08 565.66,-46.87 497.83,-34.03"/>
<polygon fill="black" stroke="black" points="498.74,-30.64 488.27,-32.22 497.44,-37.52 498.74,-30.64"/>
</g>
<!-- [root] var.length -->
<g id="node7" class="node">
<title>[root] var.length</title>
<polygon fill="none" stroke="black" points="773.86,-36 708.86,-36 708.86,0 779.86,0 779.86,-30 773.86,-36"/>
<polyline fill="none" stroke="black" points="773.86,-36 773.86,-30"/>
<polyline fill="none" stroke="black" points="779.86,-30 773.86,-30"/>
<text text-anchor="middle" x="744.36" y="-14.3" font-family="Times,serif" font-size="14.00">var.length</text>
</g>
<!-- [root] random_pet.my_pet (expand)&#45;&gt;[root] var.length -->
<g id="edge7" class="edge">
<title>[root] random_pet.my_pet (expand)&#45;&gt;[root] var.length</title>
<path fill="none" stroke="black" d="M777.49,-71.7C772.59,-63.9 766.68,-54.51 761.23,-45.83"/>
<polygon fill="black" stroke="black" points="764.21,-43.99 755.92,-37.39 758.28,-47.71 764.21,-43.99"/>
</g>
<!-- [root] var.prefix -->
<g id="node8" class="node">
<title>[root] var.prefix</title>
<polygon fill="none" stroke="black" points="860.86,-36 797.86,-36 797.86,0 866.86,0 866.86,-30 860.86,-36"/>
<polyline fill="none" stroke="black" points="860.86,-36 860.86,-30"/>
<polyline fill="none" stroke="black" points="866.86,-30 860.86,-30"/>
<text text-anchor="middle" x="832.36" y="-14.3" font-family="Times,serif" font-size="14.00">var.prefix</text>
</g>
<!-- [root] random_pet.my_pet (expand)&#45;&gt;[root] var.prefix -->
<g id="edge8" class="edge">
<title>[root] random_pet.my_pet (expand)&#45;&gt;[root] var.prefix</title>
<path fill="none" stroke="black" d="M799.24,-71.7C804.14,-63.9 810.04,-54.51 815.5,-45.83"/>
<polygon fill="black" stroke="black" points="818.45,-47.71 820.81,-37.39 812.52,-43.99 818.45,-47.71"/>
</g>
<!-- [root] var.separator -->
<g id="node9" class="node">
<title>[root] var.separator</title>
<polygon fill="none" stroke="black" points="965.36,-36 885.36,-36 885.36,0 971.36,0 971.36,-30 965.36,-36"/>
<polyline fill="none" stroke="black" points="965.36,-36 965.36,-30"/>
<polyline fill="none" stroke="black" points="971.36,-30 965.36,-30"/>
<text text-anchor="middle" x="928.36" y="-14.3" font-family="Times,serif" font-size="14.00">var.separator</text>
</g>
<!-- [root] random_pet.my_pet (expand)&#45;&gt;[root] var.separator -->
<g id="edge9" class="edge">
<title>[root] random_pet.my_pet (expand)&#45;&gt;[root] var.separator</title>
<path fill="none" stroke="black" d="M823.33,-71.52C841.59,-62.39 864.14,-51.11 883.66,-41.35"/>
<polygon fill="black" stroke="black" points="885.11,-44.54 892.49,-36.94 881.98,-38.28 885.11,-44.54"/>
</g>
<!-- [root] var.content -->
<g id="node5" class="node">
<title>[root] var.content</title>
<polygon fill="none" stroke="black" points="286.86,-252 215.86,-252 215.86,-216 292.86,-216 292.86,-246 286.86,-252"/>
<polyline fill="none" stroke="black" points="286.86,-252 286.86,-246"/>
<polyline fill="none" stroke="black" points="292.86,-246 286.86,-246"/>
<text text-anchor="middle" x="254.36" y="-230.3" font-family="Times,serif" font-size="14.00">var.content</text>
</g>
<!-- [root] provider[&quot;registry.terraform.io/hashicorp/local&quot;] (close) -->
<g id="node10" class="node">
<title>[root] provider[&quot;registry.terraform.io/hashicorp/local&quot;] (close)</title>
<ellipse fill="none" stroke="black" cx="541.36" cy="-234" rx="230.96" ry="18"/>
<text text-anchor="middle" x="541.36" y="-230.3" font-family="Times,serif" font-size="14.00">[root] provider[&quot;registry.terraform.io/hashicorp/local&quot;] (close)</text>
</g>
<!-- [root] provider[&quot;registry.terraform.io/hashicorp/local&quot;] (close)&#45;&gt;[root] local_file.pet (expand) -->
<g id="edge4" class="edge">
<title>[root] provider[&quot;registry.terraform.io/hashicorp/local&quot;] (close)&#45;&gt;[root] local_file.pet (expand)</title>
<path fill="none" stroke="black" d="M538.64,-215.7C537.49,-208.32 536.1,-199.52 534.8,-191.25"/>
<polygon fill="black" stroke="black" points="538.3,-190.93 533.29,-181.6 531.38,-192.02 538.3,-190.93"/>
</g>
<!-- [root] provider[&quot;registry.terraform.io/hashicorp/random&quot;] (close) -->
<g id="node11" class="node">
<title>[root] provider[&quot;registry.terraform.io/hashicorp/random&quot;] (close)</title>
<ellipse fill="none" stroke="black" cx="833.36" cy="-162" rx="241.26" ry="18"/>
<text text-anchor="middle" x="833.36" y="-158.3" font-family="Times,serif" font-size="14.00">[root] provider[&quot;registry.terraform.io/hashicorp/random&quot;] (close)</text>
</g>
<!-- [root] provider[&quot;registry.terraform.io/hashicorp/random&quot;] (close)&#45;&gt;[root] random_pet.my_pet (expand) -->
<g id="edge5" class="edge">
<title>[root] provider[&quot;registry.terraform.io/hashicorp/random&quot;] (close)&#45;&gt;[root] random_pet.my_pet (expand)</title>
<path fill="none" stroke="black" d="M822.24,-143.7C817.17,-135.81 811.06,-126.3 805.43,-117.55"/>
<polygon fill="black" stroke="black" points="808.53,-115.9 800.18,-109.38 802.64,-119.68 808.53,-115.9"/>
</g>
<!-- [root] root -->
<g id="node12" class="node">
<title>[root] root</title>
<ellipse fill="none" stroke="black" cx="541.36" cy="-306" rx="47.39" ry="18"/>
<text text-anchor="middle" x="541.36" y="-302.3" font-family="Times,serif" font-size="14.00">[root] root</text>
</g>
<!-- [root] root&#45;&gt;[root] var.content -->
<g id="edge12" class="edge">
<title>[root] root&#45;&gt;[root] var.content</title>
<path fill="none" stroke="black" d="M499.33,-297.43C453.35,-288.78 377.35,-273.38 304.02,-252.6"/>
<polygon fill="black" stroke="black" points="305.25,-249.31 294.67,-249.91 303.32,-256.04 305.25,-249.31"/>
</g>
<!-- [root] root&#45;&gt;[root] provider[&quot;registry.terraform.io/hashicorp/local&quot;] (close) -->
<g id="edge10" class="edge">
<title>[root] root&#45;&gt;[root] provider[&quot;registry.terraform.io/hashicorp/local&quot;] (close)</title>
<path fill="none" stroke="black" d="M541.36,-287.7C541.36,-280.41 541.36,-271.73 541.36,-263.54"/>
<polygon fill="black" stroke="black" points="544.86,-263.62 541.36,-253.62 537.86,-263.62 544.86,-263.62"/>
</g>
<!-- [root] root&#45;&gt;[root] provider[&quot;registry.terraform.io/hashicorp/random&quot;] (close) -->
<g id="edge11" class="edge">
<title>[root] root&#45;&gt;[root] provider[&quot;registry.terraform.io/hashicorp/random&quot;] (close)</title>
<path fill="none" stroke="black" d="M589.21,-305.39C641.21,-303.49 724.46,-293.46 781.36,-252 802.01,-236.95 815.8,-211.01 823.96,-191"/>
<polygon fill="black" stroke="black" points="827.2,-192.32 827.49,-181.73 820.66,-189.84 827.2,-192.32"/>
</g>
</g>
</svg>
